<mxfile host="app.diagrams.net" agent="Mozilla/5.0 (Windows NT 10.0; Win64; x64) AppleWebKit/537.36 (KHTML, like Gecko) Chrome/129.0.0.0 Safari/537.36" version="24.7.17">
  <diagram name="P치gina-1" id="ubwTDjvy3vEBKTq-KGEk">
    <mxGraphModel dx="1147" dy="907" grid="1" gridSize="10" guides="1" tooltips="1" connect="1" arrows="1" fold="1" page="1" pageScale="1" pageWidth="827" pageHeight="1169" math="0" shadow="0">
      <root>
        <mxCell id="0" />
        <mxCell id="1" parent="0" />
        <mxCell id="lcXybXH8hZFBGXkuBmmu-11" style="edgeStyle=none;rounded=0;orthogonalLoop=1;jettySize=auto;html=1;exitX=0.5;exitY=1;exitDx=0;exitDy=0;endArrow=none;endFill=0;" edge="1" parent="1" source="lcXybXH8hZFBGXkuBmmu-2">
          <mxGeometry relative="1" as="geometry">
            <mxPoint x="229.47058823529414" y="350" as="targetPoint" />
          </mxGeometry>
        </mxCell>
        <mxCell id="lcXybXH8hZFBGXkuBmmu-2" value="Nombre" style="ellipse;whiteSpace=wrap;html=1;aspect=fixed;fillColor=#e1d5e7;strokeColor=#9673a6;" vertex="1" parent="1">
          <mxGeometry x="190" y="230" width="80" height="80" as="geometry" />
        </mxCell>
        <mxCell id="lcXybXH8hZFBGXkuBmmu-4" value="Vivero" style="rounded=0;whiteSpace=wrap;html=1;fillColor=#e1d5e7;strokeColor=#9673a6;" vertex="1" parent="1">
          <mxGeometry x="170" y="350" width="120" height="60" as="geometry" />
        </mxCell>
        <mxCell id="lcXybXH8hZFBGXkuBmmu-12" style="edgeStyle=none;rounded=0;orthogonalLoop=1;jettySize=auto;html=1;exitX=0.5;exitY=1;exitDx=0;exitDy=0;endArrow=none;endFill=0;" edge="1" parent="1" source="lcXybXH8hZFBGXkuBmmu-5">
          <mxGeometry relative="1" as="geometry">
            <mxPoint x="230" y="350" as="targetPoint" />
          </mxGeometry>
        </mxCell>
        <mxCell id="lcXybXH8hZFBGXkuBmmu-5" value="C칩digo vivero" style="ellipse;whiteSpace=wrap;html=1;aspect=fixed;fillColor=#76608a;strokeColor=#432D57;fontColor=#ffffff;" vertex="1" parent="1">
          <mxGeometry x="70" y="230" width="80" height="80" as="geometry" />
        </mxCell>
        <mxCell id="lcXybXH8hZFBGXkuBmmu-14" style="edgeStyle=none;rounded=0;orthogonalLoop=1;jettySize=auto;html=1;exitX=0.5;exitY=0;exitDx=0;exitDy=0;entryX=0.5;entryY=1;entryDx=0;entryDy=0;endArrow=none;endFill=0;" edge="1" parent="1" source="lcXybXH8hZFBGXkuBmmu-6" target="lcXybXH8hZFBGXkuBmmu-4">
          <mxGeometry relative="1" as="geometry" />
        </mxCell>
        <mxCell id="lcXybXH8hZFBGXkuBmmu-6" value="Latitud" style="ellipse;whiteSpace=wrap;html=1;aspect=fixed;fillColor=#e1d5e7;strokeColor=#9673a6;" vertex="1" parent="1">
          <mxGeometry x="130" y="450" width="80" height="80" as="geometry" />
        </mxCell>
        <mxCell id="lcXybXH8hZFBGXkuBmmu-13" style="edgeStyle=none;rounded=0;orthogonalLoop=1;jettySize=auto;html=1;exitX=0.5;exitY=0;exitDx=0;exitDy=0;entryX=0.5;entryY=1;entryDx=0;entryDy=0;endArrow=none;endFill=0;" edge="1" parent="1" source="lcXybXH8hZFBGXkuBmmu-7" target="lcXybXH8hZFBGXkuBmmu-4">
          <mxGeometry relative="1" as="geometry" />
        </mxCell>
        <mxCell id="lcXybXH8hZFBGXkuBmmu-7" value="Longitud" style="ellipse;whiteSpace=wrap;html=1;aspect=fixed;fillColor=#e1d5e7;strokeColor=#9673a6;" vertex="1" parent="1">
          <mxGeometry x="260" y="450" width="80" height="80" as="geometry" />
        </mxCell>
        <mxCell id="lcXybXH8hZFBGXkuBmmu-10" style="edgeStyle=none;rounded=0;orthogonalLoop=1;jettySize=auto;html=1;exitX=0.5;exitY=1;exitDx=0;exitDy=0;entryX=0.5;entryY=0;entryDx=0;entryDy=0;endArrow=none;endFill=0;" edge="1" parent="1" source="lcXybXH8hZFBGXkuBmmu-8" target="lcXybXH8hZFBGXkuBmmu-4">
          <mxGeometry relative="1" as="geometry" />
        </mxCell>
        <mxCell id="lcXybXH8hZFBGXkuBmmu-8" value="Direcci칩n" style="ellipse;whiteSpace=wrap;html=1;aspect=fixed;fillColor=#e1d5e7;strokeColor=#9673a6;" vertex="1" parent="1">
          <mxGeometry x="310" y="230" width="80" height="80" as="geometry" />
        </mxCell>
        <mxCell id="lcXybXH8hZFBGXkuBmmu-15" style="edgeStyle=none;rounded=0;orthogonalLoop=1;jettySize=auto;html=1;exitX=0.5;exitY=1;exitDx=0;exitDy=0;endArrow=none;endFill=0;" edge="1" parent="1" source="lcXybXH8hZFBGXkuBmmu-16">
          <mxGeometry relative="1" as="geometry">
            <mxPoint x="859.4705882352941" y="350" as="targetPoint" />
          </mxGeometry>
        </mxCell>
        <mxCell id="lcXybXH8hZFBGXkuBmmu-16" value="Nombre" style="ellipse;whiteSpace=wrap;html=1;aspect=fixed;fillColor=#e1d5e7;strokeColor=#9673a6;" vertex="1" parent="1">
          <mxGeometry x="820" y="230" width="80" height="80" as="geometry" />
        </mxCell>
        <mxCell id="lcXybXH8hZFBGXkuBmmu-70" style="edgeStyle=none;shape=connector;rounded=0;orthogonalLoop=1;jettySize=auto;html=1;exitX=0.5;exitY=1;exitDx=0;exitDy=0;entryX=0.5;entryY=0;entryDx=0;entryDy=0;strokeColor=default;align=center;verticalAlign=middle;fontFamily=Helvetica;fontSize=11;fontColor=default;labelBackgroundColor=default;endArrow=none;endFill=0;" edge="1" parent="1" source="lcXybXH8hZFBGXkuBmmu-17" target="lcXybXH8hZFBGXkuBmmu-69">
          <mxGeometry relative="1" as="geometry" />
        </mxCell>
        <mxCell id="lcXybXH8hZFBGXkuBmmu-145" style="edgeStyle=none;shape=connector;rounded=0;orthogonalLoop=1;jettySize=auto;html=1;exitX=0;exitY=0.5;exitDx=0;exitDy=0;entryX=0.5;entryY=0;entryDx=0;entryDy=0;strokeColor=default;align=center;verticalAlign=middle;fontFamily=Helvetica;fontSize=11;fontColor=default;labelBackgroundColor=default;endArrow=none;endFill=0;" edge="1" parent="1" source="lcXybXH8hZFBGXkuBmmu-17" target="lcXybXH8hZFBGXkuBmmu-91">
          <mxGeometry relative="1" as="geometry" />
        </mxCell>
        <mxCell id="lcXybXH8hZFBGXkuBmmu-17" value="Zona" style="shape=process;whiteSpace=wrap;html=1;backgroundOutline=1;fillColor=#e1d5e7;strokeColor=#9673a6;" vertex="1" parent="1">
          <mxGeometry x="800" y="350" width="120" height="60" as="geometry" />
        </mxCell>
        <mxCell id="lcXybXH8hZFBGXkuBmmu-18" style="edgeStyle=none;rounded=0;orthogonalLoop=1;jettySize=auto;html=1;exitX=0.5;exitY=1;exitDx=0;exitDy=0;endArrow=none;endFill=0;" edge="1" parent="1" source="lcXybXH8hZFBGXkuBmmu-19">
          <mxGeometry relative="1" as="geometry">
            <mxPoint x="860" y="350" as="targetPoint" />
          </mxGeometry>
        </mxCell>
        <mxCell id="lcXybXH8hZFBGXkuBmmu-19" value="C칩digo zona" style="ellipse;whiteSpace=wrap;html=1;aspect=fixed;fillColor=#76608a;strokeColor=#432D57;fontColor=#ffffff;" vertex="1" parent="1">
          <mxGeometry x="700" y="230" width="80" height="80" as="geometry" />
        </mxCell>
        <mxCell id="lcXybXH8hZFBGXkuBmmu-20" style="edgeStyle=none;rounded=0;orthogonalLoop=1;jettySize=auto;html=1;exitX=0.5;exitY=0;exitDx=0;exitDy=0;entryX=0.5;entryY=1;entryDx=0;entryDy=0;endArrow=none;endFill=0;" edge="1" parent="1" source="lcXybXH8hZFBGXkuBmmu-21" target="lcXybXH8hZFBGXkuBmmu-17">
          <mxGeometry relative="1" as="geometry" />
        </mxCell>
        <mxCell id="lcXybXH8hZFBGXkuBmmu-21" value="Latitud" style="ellipse;whiteSpace=wrap;html=1;aspect=fixed;fillColor=#e1d5e7;strokeColor=#9673a6;" vertex="1" parent="1">
          <mxGeometry x="760" y="450" width="80" height="80" as="geometry" />
        </mxCell>
        <mxCell id="lcXybXH8hZFBGXkuBmmu-22" style="edgeStyle=none;rounded=0;orthogonalLoop=1;jettySize=auto;html=1;exitX=0.5;exitY=0;exitDx=0;exitDy=0;entryX=0.5;entryY=1;entryDx=0;entryDy=0;endArrow=none;endFill=0;" edge="1" parent="1" source="lcXybXH8hZFBGXkuBmmu-23" target="lcXybXH8hZFBGXkuBmmu-17">
          <mxGeometry relative="1" as="geometry" />
        </mxCell>
        <mxCell id="lcXybXH8hZFBGXkuBmmu-23" value="Longitud" style="ellipse;whiteSpace=wrap;html=1;aspect=fixed;fillColor=#e1d5e7;strokeColor=#9673a6;" vertex="1" parent="1">
          <mxGeometry x="890" y="450" width="80" height="80" as="geometry" />
        </mxCell>
        <mxCell id="lcXybXH8hZFBGXkuBmmu-24" style="edgeStyle=none;rounded=0;orthogonalLoop=1;jettySize=auto;html=1;exitX=0.5;exitY=1;exitDx=0;exitDy=0;entryX=0.5;entryY=0;entryDx=0;entryDy=0;endArrow=none;endFill=0;" edge="1" parent="1" source="lcXybXH8hZFBGXkuBmmu-25" target="lcXybXH8hZFBGXkuBmmu-17">
          <mxGeometry relative="1" as="geometry" />
        </mxCell>
        <mxCell id="lcXybXH8hZFBGXkuBmmu-25" value="Tipo" style="ellipse;whiteSpace=wrap;html=1;aspect=fixed;fillColor=#e1d5e7;strokeColor=#9673a6;" vertex="1" parent="1">
          <mxGeometry x="940" y="230" width="80" height="80" as="geometry" />
        </mxCell>
        <mxCell id="lcXybXH8hZFBGXkuBmmu-28" style="edgeStyle=none;rounded=0;orthogonalLoop=1;jettySize=auto;html=1;exitX=1;exitY=0.5;exitDx=0;exitDy=0;entryX=0;entryY=0.5;entryDx=0;entryDy=0;endArrow=none;endFill=0;" edge="1" parent="1" source="lcXybXH8hZFBGXkuBmmu-27" target="lcXybXH8hZFBGXkuBmmu-17">
          <mxGeometry relative="1" as="geometry" />
        </mxCell>
        <mxCell id="lcXybXH8hZFBGXkuBmmu-29" style="edgeStyle=none;rounded=0;orthogonalLoop=1;jettySize=auto;html=1;exitX=0;exitY=0.5;exitDx=0;exitDy=0;entryX=1;entryY=0.5;entryDx=0;entryDy=0;endArrow=none;endFill=0;" edge="1" parent="1" source="lcXybXH8hZFBGXkuBmmu-27" target="lcXybXH8hZFBGXkuBmmu-4">
          <mxGeometry relative="1" as="geometry" />
        </mxCell>
        <mxCell id="lcXybXH8hZFBGXkuBmmu-27" value="Vivero-Zona" style="rhombus;whiteSpace=wrap;html=1;fillColor=#fff2cc;strokeColor=#d6b656;" vertex="1" parent="1">
          <mxGeometry x="530" y="340" width="80" height="80" as="geometry" />
        </mxCell>
        <mxCell id="lcXybXH8hZFBGXkuBmmu-30" value="(1,N)" style="text;html=1;align=center;verticalAlign=middle;resizable=0;points=[];autosize=1;strokeColor=none;fillColor=none;" vertex="1" parent="1">
          <mxGeometry x="690" y="330" width="50" height="30" as="geometry" />
        </mxCell>
        <mxCell id="lcXybXH8hZFBGXkuBmmu-31" value="Tiene" style="text;html=1;align=center;verticalAlign=middle;resizable=0;points=[];autosize=1;strokeColor=none;fillColor=none;" vertex="1" parent="1">
          <mxGeometry x="690" y="350" width="50" height="30" as="geometry" />
        </mxCell>
        <mxCell id="lcXybXH8hZFBGXkuBmmu-32" value="(1,1)" style="text;html=1;align=center;verticalAlign=middle;resizable=0;points=[];autosize=1;strokeColor=none;fillColor=none;" vertex="1" parent="1">
          <mxGeometry x="390" y="330" width="50" height="30" as="geometry" />
        </mxCell>
        <mxCell id="lcXybXH8hZFBGXkuBmmu-33" value="Pertenece" style="text;html=1;align=center;verticalAlign=middle;resizable=0;points=[];autosize=1;strokeColor=none;fillColor=none;" vertex="1" parent="1">
          <mxGeometry x="373.5" y="350" width="80" height="30" as="geometry" />
        </mxCell>
        <mxCell id="lcXybXH8hZFBGXkuBmmu-34" value="&lt;b&gt;ID&lt;/b&gt;" style="text;html=1;align=center;verticalAlign=middle;resizable=0;points=[];autosize=1;strokeColor=none;fillColor=none;" vertex="1" parent="1">
          <mxGeometry x="550" y="340" width="40" height="30" as="geometry" />
        </mxCell>
        <mxCell id="lcXybXH8hZFBGXkuBmmu-36" value="Nombre" style="ellipse;whiteSpace=wrap;html=1;aspect=fixed;fillColor=#e1d5e7;strokeColor=#9673a6;" vertex="1" parent="1">
          <mxGeometry x="1490" y="340" width="80" height="80" as="geometry" />
        </mxCell>
        <mxCell id="lcXybXH8hZFBGXkuBmmu-176" style="edgeStyle=none;shape=connector;rounded=0;orthogonalLoop=1;jettySize=auto;html=1;exitX=1;exitY=0.5;exitDx=0;exitDy=0;entryX=0;entryY=0.5;entryDx=0;entryDy=0;strokeColor=default;align=center;verticalAlign=middle;fontFamily=Helvetica;fontSize=11;fontColor=default;labelBackgroundColor=default;endArrow=none;endFill=0;" edge="1" parent="1" source="lcXybXH8hZFBGXkuBmmu-37" target="lcXybXH8hZFBGXkuBmmu-36">
          <mxGeometry relative="1" as="geometry" />
        </mxCell>
        <mxCell id="lcXybXH8hZFBGXkuBmmu-178" style="edgeStyle=none;shape=connector;rounded=0;orthogonalLoop=1;jettySize=auto;html=1;exitX=0.5;exitY=1;exitDx=0;exitDy=0;entryX=0.5;entryY=0;entryDx=0;entryDy=0;strokeColor=default;align=center;verticalAlign=middle;fontFamily=Helvetica;fontSize=11;fontColor=default;labelBackgroundColor=default;endArrow=none;endFill=0;" edge="1" parent="1" source="lcXybXH8hZFBGXkuBmmu-37" target="lcXybXH8hZFBGXkuBmmu-177">
          <mxGeometry relative="1" as="geometry" />
        </mxCell>
        <mxCell id="lcXybXH8hZFBGXkuBmmu-37" value="Producto" style="rounded=0;whiteSpace=wrap;html=1;fillColor=#e1d5e7;strokeColor=#9673a6;" vertex="1" parent="1">
          <mxGeometry x="1290" y="350" width="120" height="60" as="geometry" />
        </mxCell>
        <mxCell id="lcXybXH8hZFBGXkuBmmu-175" style="edgeStyle=none;shape=connector;rounded=0;orthogonalLoop=1;jettySize=auto;html=1;exitX=0.5;exitY=1;exitDx=0;exitDy=0;strokeColor=default;align=center;verticalAlign=middle;fontFamily=Helvetica;fontSize=11;fontColor=default;labelBackgroundColor=default;endArrow=none;endFill=0;" edge="1" parent="1" source="lcXybXH8hZFBGXkuBmmu-41">
          <mxGeometry relative="1" as="geometry">
            <mxPoint x="1350" y="350" as="targetPoint" />
          </mxGeometry>
        </mxCell>
        <mxCell id="lcXybXH8hZFBGXkuBmmu-41" value="Precio" style="ellipse;whiteSpace=wrap;html=1;aspect=fixed;fillColor=#e1d5e7;strokeColor=#9673a6;dashed=1;strokeWidth=2;" vertex="1" parent="1">
          <mxGeometry x="1190" y="220" width="80" height="80" as="geometry" />
        </mxCell>
        <mxCell id="lcXybXH8hZFBGXkuBmmu-173" style="edgeStyle=none;shape=connector;rounded=0;orthogonalLoop=1;jettySize=auto;html=1;exitX=0.5;exitY=1;exitDx=0;exitDy=0;strokeColor=default;align=center;verticalAlign=middle;fontFamily=Helvetica;fontSize=11;fontColor=default;labelBackgroundColor=default;endArrow=none;endFill=0;" edge="1" parent="1" source="lcXybXH8hZFBGXkuBmmu-43">
          <mxGeometry relative="1" as="geometry">
            <mxPoint x="1350" y="350" as="targetPoint" />
          </mxGeometry>
        </mxCell>
        <mxCell id="lcXybXH8hZFBGXkuBmmu-43" value="C칩digo producto" style="ellipse;whiteSpace=wrap;html=1;aspect=fixed;fillColor=#76608a;strokeColor=#432D57;fontColor=#ffffff;" vertex="1" parent="1">
          <mxGeometry x="1430" y="220" width="80" height="80" as="geometry" />
        </mxCell>
        <mxCell id="lcXybXH8hZFBGXkuBmmu-148" style="edgeStyle=none;shape=connector;rounded=0;orthogonalLoop=1;jettySize=auto;html=1;exitX=0.5;exitY=1;exitDx=0;exitDy=0;entryX=0.5;entryY=0;entryDx=0;entryDy=0;strokeColor=default;align=center;verticalAlign=middle;fontFamily=Helvetica;fontSize=11;fontColor=default;labelBackgroundColor=default;endArrow=none;endFill=0;" edge="1" parent="1" source="lcXybXH8hZFBGXkuBmmu-45" target="lcXybXH8hZFBGXkuBmmu-37">
          <mxGeometry relative="1" as="geometry" />
        </mxCell>
        <mxCell id="lcXybXH8hZFBGXkuBmmu-45" value="Stock" style="ellipse;whiteSpace=wrap;html=1;aspect=fixed;fillColor=#e1d5e7;strokeColor=#9673a6;" vertex="1" parent="1">
          <mxGeometry x="1310" y="220" width="80" height="80" as="geometry" />
        </mxCell>
        <mxCell id="lcXybXH8hZFBGXkuBmmu-52" style="edgeStyle=none;shape=connector;rounded=0;orthogonalLoop=1;jettySize=auto;html=1;exitX=1;exitY=0.5;exitDx=0;exitDy=0;entryX=0;entryY=0.5;entryDx=0;entryDy=0;strokeColor=default;align=center;verticalAlign=middle;fontFamily=Helvetica;fontSize=11;fontColor=default;labelBackgroundColor=default;endArrow=none;endFill=0;" edge="1" parent="1" source="lcXybXH8hZFBGXkuBmmu-51" target="lcXybXH8hZFBGXkuBmmu-37">
          <mxGeometry relative="1" as="geometry" />
        </mxCell>
        <mxCell id="lcXybXH8hZFBGXkuBmmu-53" style="edgeStyle=none;shape=connector;rounded=0;orthogonalLoop=1;jettySize=auto;html=1;exitX=0;exitY=0.5;exitDx=0;exitDy=0;strokeColor=default;align=center;verticalAlign=middle;fontFamily=Helvetica;fontSize=11;fontColor=default;labelBackgroundColor=default;endArrow=none;endFill=0;" edge="1" parent="1" source="lcXybXH8hZFBGXkuBmmu-51" target="lcXybXH8hZFBGXkuBmmu-17">
          <mxGeometry relative="1" as="geometry" />
        </mxCell>
        <mxCell id="lcXybXH8hZFBGXkuBmmu-51" value="Zona-Producto" style="rhombus;whiteSpace=wrap;html=1;fillColor=#fff2cc;strokeColor=#d6b656;" vertex="1" parent="1">
          <mxGeometry x="1090" y="340" width="80" height="80" as="geometry" />
        </mxCell>
        <mxCell id="lcXybXH8hZFBGXkuBmmu-54" value="(1,N)" style="text;html=1;align=center;verticalAlign=middle;resizable=0;points=[];autosize=1;strokeColor=none;fillColor=none;fontFamily=Helvetica;fontSize=11;fontColor=default;labelBackgroundColor=default;" vertex="1" parent="1">
          <mxGeometry x="1205" y="330" width="50" height="30" as="geometry" />
        </mxCell>
        <mxCell id="lcXybXH8hZFBGXkuBmmu-55" value="(1,N)" style="text;html=1;align=center;verticalAlign=middle;resizable=0;points=[];autosize=1;strokeColor=none;fillColor=none;fontFamily=Helvetica;fontSize=11;fontColor=default;labelBackgroundColor=default;" vertex="1" parent="1">
          <mxGeometry x="980" y="330" width="50" height="30" as="geometry" />
        </mxCell>
        <mxCell id="lcXybXH8hZFBGXkuBmmu-56" value="Asignado" style="text;html=1;align=center;verticalAlign=middle;resizable=0;points=[];autosize=1;strokeColor=none;fillColor=none;fontFamily=Helvetica;fontSize=11;fontColor=default;labelBackgroundColor=default;" vertex="1" parent="1">
          <mxGeometry x="970" y="350" width="70" height="30" as="geometry" />
        </mxCell>
        <mxCell id="lcXybXH8hZFBGXkuBmmu-57" value="Tiene asignado" style="text;html=1;align=center;verticalAlign=middle;resizable=0;points=[];autosize=1;strokeColor=none;fillColor=none;fontFamily=Helvetica;fontSize=11;fontColor=default;labelBackgroundColor=default;" vertex="1" parent="1">
          <mxGeometry x="1180" y="350" width="100" height="30" as="geometry" />
        </mxCell>
        <mxCell id="lcXybXH8hZFBGXkuBmmu-58" style="edgeStyle=none;rounded=0;orthogonalLoop=1;jettySize=auto;html=1;exitX=0.5;exitY=1;exitDx=0;exitDy=0;endArrow=none;endFill=0;" edge="1" parent="1" source="lcXybXH8hZFBGXkuBmmu-59">
          <mxGeometry relative="1" as="geometry">
            <mxPoint x="859.4705882352941" y="780" as="targetPoint" />
          </mxGeometry>
        </mxCell>
        <mxCell id="lcXybXH8hZFBGXkuBmmu-59" value="Nombre" style="ellipse;whiteSpace=wrap;html=1;aspect=fixed;fillColor=#e1d5e7;strokeColor=#9673a6;" vertex="1" parent="1">
          <mxGeometry x="820" y="890" width="80" height="80" as="geometry" />
        </mxCell>
        <mxCell id="lcXybXH8hZFBGXkuBmmu-144" style="edgeStyle=none;shape=connector;rounded=0;orthogonalLoop=1;jettySize=auto;html=1;exitX=0;exitY=0.5;exitDx=0;exitDy=0;entryX=1;entryY=0.5;entryDx=0;entryDy=0;strokeColor=default;align=center;verticalAlign=middle;fontFamily=Helvetica;fontSize=11;fontColor=default;labelBackgroundColor=default;endArrow=none;endFill=0;" edge="1" parent="1" source="lcXybXH8hZFBGXkuBmmu-60" target="lcXybXH8hZFBGXkuBmmu-91">
          <mxGeometry relative="1" as="geometry" />
        </mxCell>
        <mxCell id="lcXybXH8hZFBGXkuBmmu-60" value="Empleado" style="rounded=0;whiteSpace=wrap;html=1;fillColor=#e1d5e7;strokeColor=#9673a6;" vertex="1" parent="1">
          <mxGeometry x="800" y="780" width="120" height="60" as="geometry" />
        </mxCell>
        <mxCell id="lcXybXH8hZFBGXkuBmmu-61" style="edgeStyle=none;rounded=0;orthogonalLoop=1;jettySize=auto;html=1;exitX=0.5;exitY=0;exitDx=0;exitDy=0;entryX=0.5;entryY=1;entryDx=0;entryDy=0;endArrow=none;endFill=0;" edge="1" parent="1" source="lcXybXH8hZFBGXkuBmmu-62" target="lcXybXH8hZFBGXkuBmmu-60">
          <mxGeometry relative="1" as="geometry" />
        </mxCell>
        <mxCell id="lcXybXH8hZFBGXkuBmmu-62" value="Puesto" style="ellipse;whiteSpace=wrap;html=1;aspect=fixed;fillColor=#e1d5e7;strokeColor=#9673a6;strokeWidth=1;" vertex="1" parent="1">
          <mxGeometry x="700" y="890" width="80" height="80" as="geometry" />
        </mxCell>
        <mxCell id="lcXybXH8hZFBGXkuBmmu-63" style="edgeStyle=none;rounded=0;orthogonalLoop=1;jettySize=auto;html=1;exitX=0.5;exitY=0;exitDx=0;exitDy=0;entryX=0.5;entryY=1;entryDx=0;entryDy=0;endArrow=none;endFill=0;" edge="1" parent="1" source="lcXybXH8hZFBGXkuBmmu-64" target="lcXybXH8hZFBGXkuBmmu-60">
          <mxGeometry relative="1" as="geometry" />
        </mxCell>
        <mxCell id="lcXybXH8hZFBGXkuBmmu-64" value="C칩digo empleado" style="ellipse;whiteSpace=wrap;html=1;aspect=fixed;fillColor=#76608a;strokeColor=#432D57;fontColor=#ffffff;" vertex="1" parent="1">
          <mxGeometry x="940" y="890" width="80" height="80" as="geometry" />
        </mxCell>
        <mxCell id="lcXybXH8hZFBGXkuBmmu-71" style="edgeStyle=none;shape=connector;rounded=0;orthogonalLoop=1;jettySize=auto;html=1;exitX=0.5;exitY=1;exitDx=0;exitDy=0;entryX=0.5;entryY=0;entryDx=0;entryDy=0;strokeColor=default;align=center;verticalAlign=middle;fontFamily=Helvetica;fontSize=11;fontColor=default;labelBackgroundColor=default;endArrow=none;endFill=0;" edge="1" parent="1" source="lcXybXH8hZFBGXkuBmmu-69" target="lcXybXH8hZFBGXkuBmmu-60">
          <mxGeometry relative="1" as="geometry" />
        </mxCell>
        <mxCell id="lcXybXH8hZFBGXkuBmmu-69" value="Zona-Empleado" style="rhombus;whiteSpace=wrap;html=1;fillColor=#fff2cc;strokeColor=#d6b656;" vertex="1" parent="1">
          <mxGeometry x="820" y="590" width="80" height="80" as="geometry" />
        </mxCell>
        <mxCell id="lcXybXH8hZFBGXkuBmmu-73" value="Tiene asignada" style="text;html=1;align=center;verticalAlign=middle;resizable=0;points=[];autosize=1;strokeColor=none;fillColor=none;fontFamily=Helvetica;fontSize=11;fontColor=default;labelBackgroundColor=default;" vertex="1" parent="1">
          <mxGeometry x="860" y="710" width="100" height="30" as="geometry" />
        </mxCell>
        <mxCell id="lcXybXH8hZFBGXkuBmmu-74" value="Tiene asignada" style="text;html=1;align=center;verticalAlign=middle;resizable=0;points=[];autosize=1;strokeColor=none;fillColor=none;fontFamily=Helvetica;fontSize=11;fontColor=default;labelBackgroundColor=default;" vertex="1" parent="1">
          <mxGeometry x="860" y="548" width="100" height="30" as="geometry" />
        </mxCell>
        <mxCell id="lcXybXH8hZFBGXkuBmmu-75" value="(1,1)" style="text;html=1;align=center;verticalAlign=middle;resizable=0;points=[];autosize=1;strokeColor=none;fillColor=none;fontFamily=Helvetica;fontSize=11;fontColor=default;labelBackgroundColor=default;" vertex="1" parent="1">
          <mxGeometry x="810" y="548" width="50" height="30" as="geometry" />
        </mxCell>
        <mxCell id="lcXybXH8hZFBGXkuBmmu-76" value="(1,1)" style="text;html=1;align=center;verticalAlign=middle;resizable=0;points=[];autosize=1;strokeColor=none;fillColor=none;fontFamily=Helvetica;fontSize=11;fontColor=default;labelBackgroundColor=default;" vertex="1" parent="1">
          <mxGeometry x="810" y="710" width="50" height="30" as="geometry" />
        </mxCell>
        <mxCell id="lcXybXH8hZFBGXkuBmmu-78" style="edgeStyle=none;rounded=0;orthogonalLoop=1;jettySize=auto;html=1;exitX=0.5;exitY=1;exitDx=0;exitDy=0;endArrow=none;endFill=0;" edge="1" parent="1" source="lcXybXH8hZFBGXkuBmmu-79">
          <mxGeometry relative="1" as="geometry">
            <mxPoint x="379.47058823529414" y="698" as="targetPoint" />
          </mxGeometry>
        </mxCell>
        <mxCell id="lcXybXH8hZFBGXkuBmmu-79" value="Fecha inicio" style="ellipse;whiteSpace=wrap;html=1;aspect=fixed;fillColor=#e1d5e7;strokeColor=#9673a6;" vertex="1" parent="1">
          <mxGeometry x="340" y="578" width="80" height="80" as="geometry" />
        </mxCell>
        <mxCell id="lcXybXH8hZFBGXkuBmmu-80" value="Historial" style="rounded=0;whiteSpace=wrap;html=1;fillColor=#e1d5e7;strokeColor=#9673a6;" vertex="1" parent="1">
          <mxGeometry x="320" y="698" width="120" height="60" as="geometry" />
        </mxCell>
        <mxCell id="lcXybXH8hZFBGXkuBmmu-81" style="edgeStyle=none;rounded=0;orthogonalLoop=1;jettySize=auto;html=1;exitX=0.5;exitY=1;exitDx=0;exitDy=0;endArrow=none;endFill=0;" edge="1" parent="1" source="lcXybXH8hZFBGXkuBmmu-82">
          <mxGeometry relative="1" as="geometry">
            <mxPoint x="380" y="698" as="targetPoint" />
          </mxGeometry>
        </mxCell>
        <mxCell id="lcXybXH8hZFBGXkuBmmu-82" value="C칩digo historial" style="ellipse;whiteSpace=wrap;html=1;aspect=fixed;fillColor=#76608a;strokeColor=#432D57;fontColor=#ffffff;" vertex="1" parent="1">
          <mxGeometry x="220" y="578" width="80" height="80" as="geometry" />
        </mxCell>
        <mxCell id="lcXybXH8hZFBGXkuBmmu-83" style="edgeStyle=none;rounded=0;orthogonalLoop=1;jettySize=auto;html=1;exitX=0.5;exitY=0;exitDx=0;exitDy=0;entryX=0.5;entryY=1;entryDx=0;entryDy=0;endArrow=none;endFill=0;" edge="1" parent="1" source="lcXybXH8hZFBGXkuBmmu-84" target="lcXybXH8hZFBGXkuBmmu-80">
          <mxGeometry relative="1" as="geometry" />
        </mxCell>
        <mxCell id="lcXybXH8hZFBGXkuBmmu-84" value="Puesto" style="ellipse;whiteSpace=wrap;html=1;aspect=fixed;fillColor=#e1d5e7;strokeColor=#9673a6;" vertex="1" parent="1">
          <mxGeometry x="280" y="798" width="80" height="80" as="geometry" />
        </mxCell>
        <mxCell id="lcXybXH8hZFBGXkuBmmu-85" style="edgeStyle=none;rounded=0;orthogonalLoop=1;jettySize=auto;html=1;exitX=0.5;exitY=0;exitDx=0;exitDy=0;entryX=0.5;entryY=1;entryDx=0;entryDy=0;endArrow=none;endFill=0;" edge="1" parent="1" source="lcXybXH8hZFBGXkuBmmu-86" target="lcXybXH8hZFBGXkuBmmu-80">
          <mxGeometry relative="1" as="geometry" />
        </mxCell>
        <mxCell id="lcXybXH8hZFBGXkuBmmu-86" value="Productividad" style="ellipse;whiteSpace=wrap;html=1;aspect=fixed;fillColor=#dae8fc;strokeColor=#6c8ebf;" vertex="1" parent="1">
          <mxGeometry x="410" y="798" width="80" height="80" as="geometry" />
        </mxCell>
        <mxCell id="lcXybXH8hZFBGXkuBmmu-87" style="edgeStyle=none;rounded=0;orthogonalLoop=1;jettySize=auto;html=1;exitX=0.5;exitY=1;exitDx=0;exitDy=0;entryX=0.5;entryY=0;entryDx=0;entryDy=0;endArrow=none;endFill=0;" edge="1" parent="1" source="lcXybXH8hZFBGXkuBmmu-88" target="lcXybXH8hZFBGXkuBmmu-80">
          <mxGeometry relative="1" as="geometry" />
        </mxCell>
        <mxCell id="lcXybXH8hZFBGXkuBmmu-88" value="Fecha fin" style="ellipse;whiteSpace=wrap;html=1;aspect=fixed;fillColor=#e1d5e7;strokeColor=#9673a6;" vertex="1" parent="1">
          <mxGeometry x="460" y="578" width="80" height="80" as="geometry" />
        </mxCell>
        <mxCell id="lcXybXH8hZFBGXkuBmmu-146" style="edgeStyle=none;shape=connector;rounded=0;orthogonalLoop=1;jettySize=auto;html=1;exitX=0;exitY=0.5;exitDx=0;exitDy=0;entryX=1;entryY=0.5;entryDx=0;entryDy=0;strokeColor=default;align=center;verticalAlign=middle;fontFamily=Helvetica;fontSize=11;fontColor=default;labelBackgroundColor=default;endArrow=none;endFill=0;" edge="1" parent="1" source="lcXybXH8hZFBGXkuBmmu-91" target="lcXybXH8hZFBGXkuBmmu-80">
          <mxGeometry relative="1" as="geometry" />
        </mxCell>
        <mxCell id="lcXybXH8hZFBGXkuBmmu-91" value="Zona-Empleado-Historial" style="rhombus;whiteSpace=wrap;html=1;fillColor=#fff2cc;strokeColor=#d6b656;" vertex="1" parent="1">
          <mxGeometry x="580" y="688" width="80" height="80" as="geometry" />
        </mxCell>
        <mxCell id="lcXybXH8hZFBGXkuBmmu-121" style="edgeStyle=none;rounded=0;orthogonalLoop=1;jettySize=auto;html=1;exitX=0.5;exitY=1;exitDx=0;exitDy=0;endArrow=none;endFill=0;" edge="1" parent="1" source="lcXybXH8hZFBGXkuBmmu-122">
          <mxGeometry relative="1" as="geometry">
            <mxPoint x="1829.4705882352941" y="780" as="targetPoint" />
          </mxGeometry>
        </mxCell>
        <mxCell id="lcXybXH8hZFBGXkuBmmu-122" value="Nombre" style="ellipse;whiteSpace=wrap;html=1;aspect=fixed;fillColor=#e1d5e7;strokeColor=#9673a6;" vertex="1" parent="1">
          <mxGeometry x="1790" y="660" width="80" height="80" as="geometry" />
        </mxCell>
        <mxCell id="lcXybXH8hZFBGXkuBmmu-157" style="edgeStyle=none;shape=connector;rounded=0;orthogonalLoop=1;jettySize=auto;html=1;exitX=0.5;exitY=1;exitDx=0;exitDy=0;entryX=0.5;entryY=0;entryDx=0;entryDy=0;strokeColor=default;align=center;verticalAlign=middle;fontFamily=Helvetica;fontSize=11;fontColor=default;labelBackgroundColor=default;endArrow=none;endFill=0;" edge="1" parent="1" source="lcXybXH8hZFBGXkuBmmu-123" target="lcXybXH8hZFBGXkuBmmu-127">
          <mxGeometry relative="1" as="geometry" />
        </mxCell>
        <mxCell id="lcXybXH8hZFBGXkuBmmu-158" style="edgeStyle=none;shape=connector;rounded=0;orthogonalLoop=1;jettySize=auto;html=1;exitX=0.5;exitY=1;exitDx=0;exitDy=0;entryX=0.5;entryY=0;entryDx=0;entryDy=0;strokeColor=default;align=center;verticalAlign=middle;fontFamily=Helvetica;fontSize=11;fontColor=default;labelBackgroundColor=default;endArrow=none;endFill=0;" edge="1" parent="1" source="lcXybXH8hZFBGXkuBmmu-123" target="lcXybXH8hZFBGXkuBmmu-129">
          <mxGeometry relative="1" as="geometry" />
        </mxCell>
        <mxCell id="lcXybXH8hZFBGXkuBmmu-160" style="edgeStyle=none;shape=connector;rounded=0;orthogonalLoop=1;jettySize=auto;html=1;exitX=0;exitY=0.5;exitDx=0;exitDy=0;entryX=1;entryY=0.5;entryDx=0;entryDy=0;strokeColor=default;align=center;verticalAlign=middle;fontFamily=Helvetica;fontSize=11;fontColor=default;labelBackgroundColor=default;endArrow=none;endFill=0;" edge="1" parent="1" source="lcXybXH8hZFBGXkuBmmu-123" target="lcXybXH8hZFBGXkuBmmu-159">
          <mxGeometry relative="1" as="geometry" />
        </mxCell>
        <mxCell id="lcXybXH8hZFBGXkuBmmu-123" value="Cliente" style="rounded=0;whiteSpace=wrap;html=1;fillColor=#e1d5e7;strokeColor=#9673a6;" vertex="1" parent="1">
          <mxGeometry x="1770" y="780" width="120" height="60" as="geometry" />
        </mxCell>
        <mxCell id="lcXybXH8hZFBGXkuBmmu-124" style="edgeStyle=none;rounded=0;orthogonalLoop=1;jettySize=auto;html=1;exitX=0.5;exitY=1;exitDx=0;exitDy=0;endArrow=none;endFill=0;" edge="1" parent="1">
          <mxGeometry relative="1" as="geometry">
            <mxPoint x="1830" y="780" as="targetPoint" />
            <mxPoint x="1710" y="740" as="sourcePoint" />
          </mxGeometry>
        </mxCell>
        <mxCell id="lcXybXH8hZFBGXkuBmmu-125" value="C칩digo cliente" style="ellipse;whiteSpace=wrap;html=1;aspect=fixed;fillColor=#76608a;strokeColor=#432D57;fontColor=#ffffff;" vertex="1" parent="1">
          <mxGeometry x="1670" y="665" width="80" height="80" as="geometry" />
        </mxCell>
        <mxCell id="lcXybXH8hZFBGXkuBmmu-127" value="Direcci칩n" style="ellipse;whiteSpace=wrap;html=1;aspect=fixed;fillColor=#e1d5e7;strokeColor=#9673a6;" vertex="1" parent="1">
          <mxGeometry x="1735" y="870" width="80" height="80" as="geometry" />
        </mxCell>
        <mxCell id="lcXybXH8hZFBGXkuBmmu-129" value="Fecha ingreso" style="ellipse;whiteSpace=wrap;html=1;aspect=fixed;fillColor=#e1d5e7;strokeColor=#9673a6;" vertex="1" parent="1">
          <mxGeometry x="1840" y="870" width="80" height="80" as="geometry" />
        </mxCell>
        <mxCell id="lcXybXH8hZFBGXkuBmmu-130" style="edgeStyle=none;rounded=0;orthogonalLoop=1;jettySize=auto;html=1;exitX=0.5;exitY=1;exitDx=0;exitDy=0;entryX=0.5;entryY=0;entryDx=0;entryDy=0;endArrow=none;endFill=0;" edge="1" parent="1" target="lcXybXH8hZFBGXkuBmmu-123">
          <mxGeometry relative="1" as="geometry">
            <mxPoint x="1950" y="740" as="sourcePoint" />
          </mxGeometry>
        </mxCell>
        <mxCell id="lcXybXH8hZFBGXkuBmmu-131" value="Email" style="ellipse;whiteSpace=wrap;html=1;aspect=fixed;fillColor=#e1d5e7;strokeColor=#9673a6;" vertex="1" parent="1">
          <mxGeometry x="1910" y="665" width="80" height="80" as="geometry" />
        </mxCell>
        <mxCell id="lcXybXH8hZFBGXkuBmmu-132" value="" style="ellipse;whiteSpace=wrap;html=1;aspect=fixed;fontFamily=Helvetica;fontSize=11;labelBackgroundColor=default;fillColor=none;" vertex="1" parent="1">
          <mxGeometry x="1915" y="670" width="70" height="70" as="geometry" />
        </mxCell>
        <mxCell id="lcXybXH8hZFBGXkuBmmu-149" style="edgeStyle=none;rounded=0;orthogonalLoop=1;jettySize=auto;html=1;exitX=0.5;exitY=1;exitDx=0;exitDy=0;endArrow=none;endFill=0;" edge="1" parent="1" source="lcXybXH8hZFBGXkuBmmu-150">
          <mxGeometry relative="1" as="geometry">
            <mxPoint x="1349.4705882352941" y="780" as="targetPoint" />
          </mxGeometry>
        </mxCell>
        <mxCell id="lcXybXH8hZFBGXkuBmmu-150" value="Fecha pedido" style="ellipse;whiteSpace=wrap;html=1;aspect=fixed;fillColor=#e1d5e7;strokeColor=#9673a6;" vertex="1" parent="1">
          <mxGeometry x="1310" y="890" width="80" height="80" as="geometry" />
        </mxCell>
        <mxCell id="lcXybXH8hZFBGXkuBmmu-162" style="edgeStyle=none;shape=connector;rounded=0;orthogonalLoop=1;jettySize=auto;html=1;exitX=0;exitY=0.5;exitDx=0;exitDy=0;entryX=1;entryY=0.5;entryDx=0;entryDy=0;strokeColor=default;align=center;verticalAlign=middle;fontFamily=Helvetica;fontSize=11;fontColor=default;labelBackgroundColor=default;endArrow=none;endFill=0;" edge="1" parent="1" source="lcXybXH8hZFBGXkuBmmu-151" target="lcXybXH8hZFBGXkuBmmu-156">
          <mxGeometry relative="1" as="geometry" />
        </mxCell>
        <mxCell id="lcXybXH8hZFBGXkuBmmu-151" value="Pedido" style="rounded=0;whiteSpace=wrap;html=1;fillColor=#e1d5e7;strokeColor=#9673a6;" vertex="1" parent="1">
          <mxGeometry x="1290" y="780" width="120" height="60" as="geometry" />
        </mxCell>
        <mxCell id="lcXybXH8hZFBGXkuBmmu-152" style="edgeStyle=none;rounded=0;orthogonalLoop=1;jettySize=auto;html=1;exitX=0.5;exitY=0;exitDx=0;exitDy=0;entryX=0.5;entryY=1;entryDx=0;entryDy=0;endArrow=none;endFill=0;" edge="1" parent="1" source="lcXybXH8hZFBGXkuBmmu-153" target="lcXybXH8hZFBGXkuBmmu-151">
          <mxGeometry relative="1" as="geometry" />
        </mxCell>
        <mxCell id="lcXybXH8hZFBGXkuBmmu-153" value="C칩digo pedido" style="ellipse;whiteSpace=wrap;html=1;aspect=fixed;fillColor=#76608a;strokeColor=#432D57;strokeWidth=1;fontColor=#ffffff;" vertex="1" parent="1">
          <mxGeometry x="1190" y="890" width="80" height="80" as="geometry" />
        </mxCell>
        <mxCell id="lcXybXH8hZFBGXkuBmmu-154" style="edgeStyle=none;rounded=0;orthogonalLoop=1;jettySize=auto;html=1;exitX=0.5;exitY=0;exitDx=0;exitDy=0;entryX=0.5;entryY=1;entryDx=0;entryDy=0;endArrow=none;endFill=0;" edge="1" parent="1" source="lcXybXH8hZFBGXkuBmmu-155" target="lcXybXH8hZFBGXkuBmmu-151">
          <mxGeometry relative="1" as="geometry" />
        </mxCell>
        <mxCell id="lcXybXH8hZFBGXkuBmmu-155" value="Importe total" style="ellipse;whiteSpace=wrap;html=1;aspect=fixed;fillColor=#e1d5e7;strokeColor=#9673a6;" vertex="1" parent="1">
          <mxGeometry x="1430" y="890" width="80" height="80" as="geometry" />
        </mxCell>
        <mxCell id="lcXybXH8hZFBGXkuBmmu-163" style="edgeStyle=none;shape=connector;rounded=0;orthogonalLoop=1;jettySize=auto;html=1;exitX=0;exitY=0.5;exitDx=0;exitDy=0;entryX=1;entryY=0.5;entryDx=0;entryDy=0;strokeColor=default;align=center;verticalAlign=middle;fontFamily=Helvetica;fontSize=11;fontColor=default;labelBackgroundColor=default;endArrow=none;endFill=0;" edge="1" parent="1" source="lcXybXH8hZFBGXkuBmmu-156" target="lcXybXH8hZFBGXkuBmmu-60">
          <mxGeometry relative="1" as="geometry" />
        </mxCell>
        <mxCell id="lcXybXH8hZFBGXkuBmmu-156" value="Empleado-Pedido" style="rhombus;whiteSpace=wrap;html=1;fillColor=#fff2cc;strokeColor=#d6b656;" vertex="1" parent="1">
          <mxGeometry x="1090" y="770" width="80" height="80" as="geometry" />
        </mxCell>
        <mxCell id="lcXybXH8hZFBGXkuBmmu-161" style="edgeStyle=none;shape=connector;rounded=0;orthogonalLoop=1;jettySize=auto;html=1;exitX=0;exitY=0.5;exitDx=0;exitDy=0;entryX=1;entryY=0.5;entryDx=0;entryDy=0;strokeColor=default;align=center;verticalAlign=middle;fontFamily=Helvetica;fontSize=11;fontColor=default;labelBackgroundColor=default;endArrow=none;endFill=0;" edge="1" parent="1" source="lcXybXH8hZFBGXkuBmmu-159" target="lcXybXH8hZFBGXkuBmmu-151">
          <mxGeometry relative="1" as="geometry" />
        </mxCell>
        <mxCell id="lcXybXH8hZFBGXkuBmmu-159" value="Pedido-Cliente" style="rhombus;whiteSpace=wrap;html=1;fillColor=#fff2cc;strokeColor=#d6b656;" vertex="1" parent="1">
          <mxGeometry x="1550" y="770" width="80" height="80" as="geometry" />
        </mxCell>
        <mxCell id="lcXybXH8hZFBGXkuBmmu-164" value="(1,N)" style="text;html=1;align=center;verticalAlign=middle;resizable=0;points=[];autosize=1;strokeColor=none;fillColor=none;fontFamily=Helvetica;fontSize=11;fontColor=default;labelBackgroundColor=default;" vertex="1" parent="1">
          <mxGeometry x="1205" y="758" width="50" height="30" as="geometry" />
        </mxCell>
        <mxCell id="lcXybXH8hZFBGXkuBmmu-165" value="Gestionar" style="text;html=1;align=center;verticalAlign=middle;resizable=0;points=[];autosize=1;strokeColor=none;fillColor=none;fontFamily=Helvetica;fontSize=11;fontColor=default;labelBackgroundColor=default;" vertex="1" parent="1">
          <mxGeometry x="1195" y="780" width="70" height="30" as="geometry" />
        </mxCell>
        <mxCell id="lcXybXH8hZFBGXkuBmmu-166" value="(1,1)" style="text;html=1;align=center;verticalAlign=middle;resizable=0;points=[];autosize=1;strokeColor=none;fillColor=none;fontFamily=Helvetica;fontSize=11;fontColor=default;labelBackgroundColor=default;" vertex="1" parent="1">
          <mxGeometry x="980" y="758" width="50" height="30" as="geometry" />
        </mxCell>
        <mxCell id="lcXybXH8hZFBGXkuBmmu-167" value="Es gestionado" style="text;html=1;align=center;verticalAlign=middle;resizable=0;points=[];autosize=1;strokeColor=none;fillColor=none;fontFamily=Helvetica;fontSize=11;fontColor=default;labelBackgroundColor=default;" vertex="1" parent="1">
          <mxGeometry x="960" y="780" width="90" height="30" as="geometry" />
        </mxCell>
        <mxCell id="lcXybXH8hZFBGXkuBmmu-169" value="Hace" style="text;html=1;align=center;verticalAlign=middle;resizable=0;points=[];autosize=1;strokeColor=none;fillColor=none;fontFamily=Helvetica;fontSize=11;fontColor=default;labelBackgroundColor=default;" vertex="1" parent="1">
          <mxGeometry x="1455" y="778" width="50" height="30" as="geometry" />
        </mxCell>
        <mxCell id="lcXybXH8hZFBGXkuBmmu-170" value="(1,N)" style="text;html=1;align=center;verticalAlign=middle;resizable=0;points=[];autosize=1;strokeColor=none;fillColor=none;fontFamily=Helvetica;fontSize=11;fontColor=default;labelBackgroundColor=default;" vertex="1" parent="1">
          <mxGeometry x="1455" y="758" width="50" height="30" as="geometry" />
        </mxCell>
        <mxCell id="lcXybXH8hZFBGXkuBmmu-171" value="Es hecho" style="text;html=1;align=center;verticalAlign=middle;resizable=0;points=[];autosize=1;strokeColor=none;fillColor=none;fontFamily=Helvetica;fontSize=11;fontColor=default;labelBackgroundColor=default;" vertex="1" parent="1">
          <mxGeometry x="1654" y="780" width="70" height="30" as="geometry" />
        </mxCell>
        <mxCell id="lcXybXH8hZFBGXkuBmmu-172" value="(1,1)" style="text;html=1;align=center;verticalAlign=middle;resizable=0;points=[];autosize=1;strokeColor=none;fillColor=none;fontFamily=Helvetica;fontSize=11;fontColor=default;labelBackgroundColor=default;" vertex="1" parent="1">
          <mxGeometry x="1664" y="758" width="50" height="30" as="geometry" />
        </mxCell>
        <mxCell id="lcXybXH8hZFBGXkuBmmu-179" style="edgeStyle=none;shape=connector;rounded=0;orthogonalLoop=1;jettySize=auto;html=1;exitX=0.5;exitY=1;exitDx=0;exitDy=0;entryX=0.5;entryY=0;entryDx=0;entryDy=0;strokeColor=default;align=center;verticalAlign=middle;fontFamily=Helvetica;fontSize=11;fontColor=default;labelBackgroundColor=default;endArrow=none;endFill=0;" edge="1" parent="1" source="lcXybXH8hZFBGXkuBmmu-177" target="lcXybXH8hZFBGXkuBmmu-151">
          <mxGeometry relative="1" as="geometry" />
        </mxCell>
        <mxCell id="lcXybXH8hZFBGXkuBmmu-177" value="Producto-Pedido" style="rhombus;whiteSpace=wrap;html=1;fillColor=#fff2cc;strokeColor=#d6b656;" vertex="1" parent="1">
          <mxGeometry x="1310" y="560" width="80" height="80" as="geometry" />
        </mxCell>
        <mxCell id="lcXybXH8hZFBGXkuBmmu-180" value="(1,1)" style="text;html=1;align=center;verticalAlign=middle;resizable=0;points=[];autosize=1;strokeColor=none;fillColor=none;fontFamily=Helvetica;fontSize=11;fontColor=default;labelBackgroundColor=default;" vertex="1" parent="1">
          <mxGeometry x="1300" y="480" width="50" height="30" as="geometry" />
        </mxCell>
        <mxCell id="lcXybXH8hZFBGXkuBmmu-181" value="Contiene" style="text;html=1;align=center;verticalAlign=middle;resizable=0;points=[];autosize=1;strokeColor=none;fillColor=none;fontFamily=Helvetica;fontSize=11;fontColor=default;labelBackgroundColor=default;" vertex="1" parent="1">
          <mxGeometry x="1350" y="480" width="70" height="30" as="geometry" />
        </mxCell>
        <mxCell id="lcXybXH8hZFBGXkuBmmu-182" value="Forma parte de" style="text;html=1;align=center;verticalAlign=middle;resizable=0;points=[];autosize=1;strokeColor=none;fillColor=none;fontFamily=Helvetica;fontSize=11;fontColor=default;labelBackgroundColor=default;" vertex="1" parent="1">
          <mxGeometry x="1350" y="698" width="100" height="30" as="geometry" />
        </mxCell>
        <mxCell id="lcXybXH8hZFBGXkuBmmu-183" value="(1,N)" style="text;html=1;align=center;verticalAlign=middle;resizable=0;points=[];autosize=1;strokeColor=none;fillColor=none;fontFamily=Helvetica;fontSize=11;fontColor=default;labelBackgroundColor=default;" vertex="1" parent="1">
          <mxGeometry x="1300" y="698" width="50" height="30" as="geometry" />
        </mxCell>
      </root>
    </mxGraphModel>
  </diagram>
</mxfile>
